<svg id="visual" viewBox="0 0 900 600" width="900" height="600" xmlns="http://www.w3.org/2000/svg" xmlns:xlink="http://www.w3.org/1999/xlink" version="1.1"><rect x="0" y="0" width="900" height="600" fill="#002233"></rect><path d="M0 391L21.5 404C43 417 86 443 128.8 455C171.7 467 214.3 465 257.2 453.5C300 442 343 421 385.8 410.2C428.7 399.3 471.3 398.7 514.2 416.7C557 434.7 600 471.3 642.8 491.2C685.7 511 728.3 514 771.2 500.8C814 487.7 857 458.3 878.5 443.7L900 429L900 601L878.5 601C857 601 814 601 771.2 601C728.3 601 685.7 601 642.8 601C600 601 557 601 514.2 601C471.3 601 428.7 601 385.8 601C343 601 300 601 257.2 601C214.3 601 171.7 601 128.8 601C86 601 43 601 21.5 601L0 601Z" fill="#0066FF" stroke-linecap="round" stroke-linejoin="miter"></path></svg>